700 0 1 0           
28 Autodesk Inventor 8.0.0.7270 17 ASM 9.0.0.1091 NT 24 Mon Aug 17 22:31:09 2009 
1 9.9999999999999995e-007 1e-010 
body $-1 -1 $-1 $1 $-1 $-1 #
lump $-1 -1 $-1 $-1 $2 $0 #
shell $-1 -1 $-1 $-1 $-1 $3 $-1 $1 #
face $-1 -1 $-1 $4 $5 $2 $-1 $6 reversed single #
face $-1 -1 $-1 $7 $8 $2 $-1 $9 reversed single #
loop $-1 -1 $-1 $10 $11 $3 #
plane-surface $-1 -1 $-1 -9.3097730906827145 5.3750000000000036 4.0000000000000009 0 0 -1 -5.0000000000000036 -8.6602540378443855 0 reverse_v I I I I #
face $-1 -1 $-1 $12 $13 $2 $-1 $14 reversed single #
loop $-1 -1 $-1 $15 $16 $4 #
cone-surface $-1 -1 $-1 -9.3097730906827145 5.3750000000000036 5.0000000000000009 0 0 1 -1.0000000000000007 -1.732050807568877 0 1 I I 0 1 2 reversed I I I I #
loop $-1 -1 $-1 $-1 $17 $3 #
coedge $-1 -1 $-1 $11 $11 $18 $19 forward $5 $-1 #
face $-1 -1 $-1 $20 $21 $2 $-1 $22 reversed single #
loop $-1 -1 $-1 $23 $24 $7 #
cone-surface $-1 -1 $-1 -9.3097730906827145 5.3750000000000036 2.0000000000000009 0 0 1 -0.5750000000000004 -0.99592921435210424 0 1 I I 0 1 1.1499999999999999 reversed I I I I #
loop $-1 -1 $-1 $-1 $18 $4 #
coedge $-1 -1 $-1 $16 $16 $25 $26 reversed $8 $-1 #
coedge $-1 -1 $-1 $17 $17 $27 $28 reversed $10 $-1 #
coedge $-1 -1 $-1 $18 $18 $11 $19 reversed $15 $-1 #
edge $-1 -1 $-1 $29 0 $29 6.2831853071795862 $11 $30 forward @7 unknown #
face $-1 -1 $-1 $31 $32 $2 $-1 $33 reversed single #
loop $-1 -1 $-1 $34 $35 $12 #
plane-surface $-1 -1 $-1 9.3097730906827163 5.3749999999999973 4.0000000000000009 0 0 -1 -4.9999999999999982 8.6602540378443891 0 reverse_v I I I I #
loop $-1 -1 $-1 $-1 $27 $7 #
coedge $-1 -1 $-1 $24 $24 $36 $37 reversed $13 $-1 #
coedge $-1 -1 $-1 $25 $25 $16 $26 forward $38 $-1 #
edge $-1 -1 $-1 $39 1.7347234759768071e-016 $39 6.2831853071795862 $25 $40 forward @7 unknown #
coedge $-1 -1 $-1 $27 $27 $17 $28 forward $23 $-1 #
edge $-1 -1 $-1 $41 -3.1415926535897931 $41 3.1415926535897931 $27 $42 forward @7 unknown #
vertex $-1 -1 $-1 $19 $43 #
ellipse-curve $-1 -1 $-1 -9.3097730906827145 5.3750000000000036 4.0000000000000009 0 0 1 -1.0000000000000007 -1.732050807568877 0 1 I I #
face $-1 -1 $-1 $44 $45 $2 $-1 $46 reversed single #
loop $-1 -1 $-1 $47 $48 $20 #
cone-surface $-1 -1 $-1 9.3097730906827163 5.3749999999999973 5.0000000000000009 0 0 1 -0.99999999999999967 1.7320508075688779 0 1 I I 0 1 2 reversed I I I I #
loop $-1 -1 $-1 $-1 $49 $12 #
coedge $-1 -1 $-1 $35 $35 $50 $51 forward $21 $-1 #
coedge $-1 -1 $-1 $36 $36 $24 $37 forward $52 $-1 #
edge $-1 -1 $-1 $53 -3.1415926535897927 $53 3.1415926535897936 $36 $54 forward @7 unknown #
loop $-1 -1 $-1 $55 $25 $56 #
vertex $-1 -1 $-1 $26 $57 #
ellipse-curve $-1 -1 $-1 -9.3097730906827145 5.3750000000000036 6.0000000000000009 0 0 -1 -1.0000000000000007 -1.732050807568877 0 1 I I #
vertex $-1 -1 $-1 $28 $58 #
ellipse-curve $-1 -1 $-1 -9.3097730906827145 5.3750000000000036 4.0000000000000009 0 0 1 -0.5750000000000004 -0.99592921435210424 0 1 I I #
point $-1 -1 $-1 -10.309773090682715 3.6429491924311264 4.0000000000000009 #
face $-1 -1 $-1 $59 $60 $2 $-1 $61 reversed single #
loop $-1 -1 $-1 $62 $63 $31 #
cone-surface $-1 -1 $-1 9.3097730906827163 5.3749999999999973 2.0000000000000009 0 0 1 -0.57499999999999973 0.99592921435210457 0 1 I I 0 1 1.1499999999999999 reversed I I I I #
loop $-1 -1 $-1 $-1 $50 $20 #
coedge $-1 -1 $-1 $48 $48 $64 $65 reversed $32 $-1 #
coedge $-1 -1 $-1 $49 $49 $66 $67 reversed $34 $-1 #
coedge $-1 -1 $-1 $50 $50 $35 $51 reversed $47 $-1 #
edge $-1 -1 $-1 $68 0 $68 6.2831853071795862 $35 $69 forward @7 unknown #
loop $-1 -1 $-1 $70 $36 $71 #
vertex $-1 -1 $-1 $37 $72 #
ellipse-curve $-1 -1 $-1 -9.3097730906827145 5.3750000000000036 2 0 0 1 -0.5750000000000004 -0.99592921435210424 0 1 I I #
loop $-1 -1 $-1 $73 $64 $56 #
face $-1 -1 $-1 $74 $38 $2 $-1 $75 reversed single #
point $-1 -1 $-1 -10.309773090682715 3.6429491924311264 6.0000000000000009 #
point $-1 -1 $-1 -8.7347730906827135 6.3709292143521079 4.0000000000000009 #
face $-1 -1 $-1 $76 $77 $2 $-1 $78 reversed single #
loop $-1 -1 $-1 $79 $80 $44 #
plane-surface $-1 -1 $-1 0 -10.75 4.0000000000000009 0 0 -1 10 0 0 reverse_v I I I I #
loop $-1 -1 $-1 $-1 $66 $31 #
coedge $-1 -1 $-1 $63 $63 $81 $82 reversed $45 $-1 #
coedge $-1 -1 $-1 $64 $64 $48 $65 forward $55 $-1 #
edge $-1 -1 $-1 $83 0 $83 6.2831853071795862 $64 $84 forward @7 unknown #
coedge $-1 -1 $-1 $66 $66 $49 $67 forward $62 $-1 #
edge $-1 -1 $-1 $85 -3.1415926535897931 $85 3.1415926535897931 $66 $86 forward @7 unknown #
vertex $-1 -1 $-1 $51 $87 #
ellipse-curve $-1 -1 $-1 9.3097730906827163 5.3749999999999973 4.0000000000000009 0 0 1 -0.99999999999999967 1.7320508075688779 0 1 I I #
loop $-1 -1 $-1 $88 $81 $71 #
face $-1 -1 $-1 $89 $52 $2 $-1 $90 forward single #
point $-1 -1 $-1 -8.7347730906827135 6.3709292143521079 2 #
loop $-1 -1 $-1 $91 $92 $56 #
face $-1 -1 $-1 $93 $94 $2 $-1 $95 reversed single #
plane-surface $-1 -1 $-1 0 0 6.0000000000000009 0 0 -1 -10 0 0 forward_v I I I I #
face $-1 -1 $-1 $96 $97 $2 $-1 $98 reversed single #
loop $-1 -1 $-1 $99 $100 $59 #
cone-surface $-1 -1 $-1 0 -10.75 5.0000000000000009 0 0 1 2 0 0 1 I I 0 1 2 reversed I I I I #
loop $-1 -1 $-1 $-1 $101 $44 #
coedge $-1 -1 $-1 $80 $80 $102 $103 forward $60 $-1 #
coedge $-1 -1 $-1 $81 $81 $63 $82 forward $70 $-1 #
edge $-1 -1 $-1 $104 -3.1415926535897931 $104 3.1415926535897931 $81 $105 forward @7 unknown #
vertex $-1 -1 $-1 $65 $106 #
ellipse-curve $-1 -1 $-1 9.3097730906827163 5.3749999999999973 6.0000000000000009 0 0 -1 -0.99999999999999967 1.7320508075688779 0 1 I I #
vertex $-1 -1 $-1 $67 $107 #
ellipse-curve $-1 -1 $-1 9.3097730906827163 5.3749999999999973 4.0000000000000009 0 0 1 -0.57499999999999973 0.99592921435210457 0 1 I I #
point $-1 -1 $-1 8.3097730906827181 7.107050807568875 4.0000000000000009 #
loop $-1 -1 $-1 $108 $109 $71 #
face $-1 -1 $-1 $56 $110 $2 $-1 $111 reversed single #
plane-surface $-1 -1 $-1 0 0 2 0 0 -1 -10 0 0 forward_v I I I I #
loop $-1 -1 $-1 $112 $113 $56 #
coedge $-1 -1 $-1 $92 $92 $100 $114 forward $73 $-1 #
face $-1 -1 $-1 $115 $116 $2 $-1 $117 forward single #
loop $-1 -1 $-1 $118 $119 $74 #
cone-surface $-1 -1 $-1 0 0 0 0 0 1 -12.5 0 0 1 I I 0 1 12.5 forward I I I I #
face $-1 -1 $-1 $120 $121 $2 $-1 $122 reversed single #
loop $-1 -1 $-1 $123 $124 $76 #
cone-surface $-1 -1 $-1 0 -10.75 2.0000000000000009 0 0 1 1.1499999999999999 0 0 1 I I 0 1 1.1499999999999999 reversed I I I I #
loop $-1 -1 $-1 $-1 $102 $59 #
coedge $-1 -1 $-1 $100 $100 $92 $114 reversed $77 $-1 #
coedge $-1 -1 $-1 $101 $101 $125 $126 reversed $79 $-1 #
coedge $-1 -1 $-1 $102 $102 $80 $103 reversed $99 $-1 #
edge $-1 -1 $-1 $127 0 $127 6.2831853071795862 $80 $128 forward @7 unknown #
vertex $-1 -1 $-1 $82 $129 #
ellipse-curve $-1 -1 $-1 9.3097730906827163 5.3749999999999973 2 0 0 1 -0.57499999999999973 0.99592921435210457 0 1 I I #
point $-1 -1 $-1 8.3097730906827181 7.107050807568875 6.0000000000000009 #
point $-1 -1 $-1 9.8847730906827174 4.379070785647893 4.0000000000000009 #
loop $-1 -1 $-1 $130 $131 $71 #
coedge $-1 -1 $-1 $109 $109 $124 $132 forward $88 $-1 #
loop $-1 -1 $-1 $133 $134 $89 #
cone-surface $-1 -1 $-1 0 0 2 0 0 1 -8.5 0 0 1 I I 0 1 8.5 forward I I I I #
loop $-1 -1 $-1 $135 $136 $56 #
coedge $-1 -1 $-1 $113 $113 $137 $138 forward $91 $-1 #
edge $-1 -1 $-1 $139 0 $139 6.2831853071795862 $92 $140 forward @7 unknown #
face $-1 -1 $-1 $-1 $141 $2 $-1 $142 forward single #
loop $-1 -1 $-1 $143 $144 $93 #
cone-surface $-1 -1 $-1 0 0 0 0 0 1 -17.5 0 0 1 I I 0 1 17.5 forward I I I I #
loop $-1 -1 $-1 $-1 $145 $74 #
coedge $-1 -1 $-1 $119 $119 $146 $147 reversed $94 $-1 #
face $-1 -1 $-1 $148 $149 $2 $-1 $150 reversed single #
loop $-1 -1 $-1 $151 $152 $96 #
cone-surface $-1 -1 $-1 -13.423393758658801 -7.7499999999999964 -43.859803449271638 0 0 1 -0.39174999999999982 0.67853090386510784 0 1 I I 0 1 0.78350000000000009 reversed I I I I #
loop $-1 -1 $-1 $-1 $125 $76 #
coedge $-1 -1 $-1 $124 $124 $109 $132 reversed $97 $-1 #
coedge $-1 -1 $-1 $125 $125 $101 $126 forward $123 $-1 #
edge $-1 -1 $-1 $153 -3.1415926535897931 $153 3.1415926535897931 $125 $154 forward @7 unknown #
vertex $-1 -1 $-1 $103 $155 #
ellipse-curve $-1 -1 $-1 0 -10.75 4.0000000000000009 0 0 1 2 0 0 1 I I #
point $-1 -1 $-1 9.8847730906827174 4.379070785647893 2 #
loop $-1 -1 $-1 $-1 $146 $71 #
coedge $-1 -1 $-1 $131 $131 $156 $157 forward $108 $-1 #
edge $-1 -1 $-1 $158 -3.1415926535897931 $158 3.1415926535897931 $109 $159 forward @7 unknown #
loop $-1 -1 $-1 $-1 $156 $89 #
coedge $-1 -1 $-1 $134 $134 $160 $161 reversed $110 $-1 #
loop $-1 -1 $-1 $162 $163 $56 #
coedge $-1 -1 $-1 $136 $136 $164 $165 forward $112 $-1 #
coedge $-1 -1 $-1 $137 $137 $113 $138 reversed $151 $-1 #
edge $-1 -1 $-1 $166 1.4129352450585667e-016 $166 6.2831853071795862 $113 $167 forward @7 unknown #
vertex $-1 -1 $-1 $114 $168 #
ellipse-curve $-1 -1 $-1 0 -10.75 6.0000000000000009 0 0 -1 2 0 0 1 I I #
loop $-1 -1 $-1 $169 $170 $115 #
plane-surface $-1 -1 $-1 0 0 0 0 0 -1 -10 0 0 forward_v I I I I #
loop $-1 -1 $-1 $-1 $171 $93 #
coedge $-1 -1 $-1 $144 $144 $172 $173 forward $116 $-1 #
coedge $-1 -1 $-1 $145 $145 $174 $175 reversed $118 $-1 #
coedge $-1 -1 $-1 $146 $146 $119 $147 forward $130 $-1 #
edge $-1 -1 $-1 $176 -3.1415926535897931 $176 3.1415926535897931 $119 $177 forward @7 unknown #
face $-1 -1 $-1 $71 $178 $2 $-1 $179 reversed single #
loop $-1 -1 $-1 $180 $181 $120 #
cone-surface $-1 -1 $-1 13.423393758658797 -7.7500000000000053 -43.859803449271638 0 0 1 -0.39175000000000026 -0.67853090386510762 0 1 I I 0 1 0.78350000000000009 reversed I I I I #
loop $-1 -1 $-1 $-1 $137 $96 #
coedge $-1 -1 $-1 $152 $152 $170 $182 reversed $121 $-1 #
vertex $-1 -1 $-1 $126 $183 #
ellipse-curve $-1 -1 $-1 0 -10.75 4.0000000000000009 0 0 1 1.1499999999999999 0 0 1 I I #
point $-1 -1 $-1 2 -10.75 4.0000000000000009 #
coedge $-1 -1 $-1 $156 $156 $131 $157 reversed $133 $-1 #
edge $-1 -1 $-1 $184 -3.1415926535897931 $184 3.1415926535897931 $131 $185 forward @7 unknown #
vertex $-1 -1 $-1 $132 $186 #
ellipse-curve $-1 -1 $-1 0 -10.75 2 0 0 1 1.1499999999999999 0 0 1 I I #
coedge $-1 -1 $-1 $160 $160 $134 $161 forward $162 $-1 #
edge $-1 -1 $-1 $187 -3.1415926535897931 $187 3.1415926535897931 $160 $188 forward @7 unknown #
loop $-1 -1 $-1 $189 $160 $56 #
coedge $-1 -1 $-1 $163 $163 $190 $191 forward $135 $-1 #
coedge $-1 -1 $-1 $164 $164 $136 $165 reversed $180 $-1 #
edge $-1 -1 $-1 $192 -8.4776114703513983e-016 $192 6.2831853071795853 $136 $193 forward @7 unknown #
vertex $-1 -1 $-1 $138 $194 #
ellipse-curve $-1 -1 $-1 -13.423393758658801 -7.7499999999999964 5.9999999999999964 0 0 -1 -0.39174999999999982 0.67853090386510784 0 1 I I #
point $-1 -1 $-1 2 -10.75 6.0000000000000009 #
loop $-1 -1 $-1 $195 $196 $115 #
coedge $-1 -1 $-1 $170 $170 $152 $182 forward $141 $-1 #
coedge $-1 -1 $-1 $171 $171 $197 $198 reversed $143 $-1 #
coedge $-1 -1 $-1 $172 $172 $144 $173 reversed $189 $-1 #
edge $-1 -1 $-1 $199 -3.1415926535897931 $199 3.1415926535897931 $144 $200 forward @7 unknown #
coedge $-1 -1 $-1 $174 $174 $145 $175 forward $201 $-1 #
edge $-1 -1 $-1 $202 -3.1415926535897931 $202 3.1415926535897931 $174 $203 forward @7 unknown #
vertex $-1 -1 $-1 $147 $204 #
ellipse-curve $-1 -1 $-1 0 0 2 0 0 -1 -12.5 0 0 1 I I #
loop $-1 -1 $-1 $205 $206 $148 #
cone-surface $-1 -1 $-1 0 15.5 -43.859803449271638 0 0 1 0.78350000000000009 0 0 1 I I 0 1 0.78350000000000009 reversed I I I I #
loop $-1 -1 $-1 $-1 $164 $120 #
coedge $-1 -1 $-1 $181 $181 $196 $207 reversed $149 $-1 #
edge $-1 -1 $-1 $208 -3.1415926535897931 $208 3.1415926535897931 $170 $209 forward @7 unknown #
point $-1 -1 $-1 -1.1499999999999999 -10.75 4.0000000000000009 #
vertex $-1 -1 $-1 $157 $210 #
ellipse-curve $-1 -1 $-1 0 0 2 0 0 1 -8.5 0 0 1 I I #
point $-1 -1 $-1 -1.1499999999999999 -10.75 2 #
vertex $-1 -1 $-1 $161 $211 #
ellipse-curve $-1 -1 $-1 0 0 6.0000000000000009 0 0 -1 -8.5 0 0 1 I I #
loop $-1 -1 $-1 $-1 $172 $56 #
coedge $-1 -1 $-1 $190 $190 $163 $191 reversed $205 $-1 #
edge $-1 -1 $-1 $212 0 $212 6.2831853071795862 $163 $213 forward @7 unknown #
vertex $-1 -1 $-1 $165 $214 #
ellipse-curve $-1 -1 $-1 13.423393758658797 -7.7500000000000053 5.9999999999999964 0 0 -1 -0.39175000000000026 -0.67853090386510762 0 1 I I #
point $-1 -1 $-1 -13.815143758658801 -7.0714690961348889 6.0000000000000009 #
loop $-1 -1 $-1 $201 $215 $115 #
coedge $-1 -1 $-1 $196 $196 $181 $207 forward $169 $-1 #
coedge $-1 -1 $-1 $197 $197 $171 $198 forward $216 $-1 #
edge $-1 -1 $-1 $217 -3.1415926535897931 $217 3.1415926535897931 $197 $218 forward @7 unknown #
vertex $-1 -1 $-1 $173 $219 #
ellipse-curve $-1 -1 $-1 0 0 6.0000000000000009 0 0 -1 -17.5 0 0 1 I I #
loop $-1 -1 $-1 $216 $174 $115 #
vertex $-1 -1 $-1 $175 $220 #
ellipse-curve $-1 -1 $-1 0 0 0 0 0 1 -12.5 0 0 1 I I #
point $-1 -1 $-1 12.5 1.5307579422779716e-015 2 #
loop $-1 -1 $-1 $-1 $190 $148 #
coedge $-1 -1 $-1 $206 $206 $215 $221 reversed $178 $-1 #
edge $-1 -1 $-1 $222 -3.1415926535897922 $222 3.141592653589794 $196 $223 forward @7 unknown #
vertex $-1 -1 $-1 $182 $224 #
ellipse-curve $-1 -1 $-1 -13.423393758658801 -7.7499999999999964 0 0 0 1 -0.39174999999999982 0.67853090386510784 0 1 I I #
point $-1 -1 $-1 8.5 1.0409154007490207e-015 2 #
point $-1 -1 $-1 8.5 1.0409154007490207e-015 6.0000000000000009 #
vertex $-1 -1 $-1 $191 $225 #
ellipse-curve $-1 -1 $-1 0 15.5 5.9999999999999964 0 0 -1 0.78350000000000009 0 0 1 I I #
point $-1 -1 $-1 13.031643758658797 -8.4285309038651128 6.0000000000000009 #
coedge $-1 -1 $-1 $215 $215 $206 $221 forward $195 $-1 #
loop $-1 -1 $-1 $-1 $197 $115 #
vertex $-1 -1 $-1 $198 $226 #
ellipse-curve $-1 -1 $-1 0 0 0 0 0 -1 -17.5 0 0 1 I I #
point $-1 -1 $-1 17.5 2.1430611191891602e-015 6.0000000000000009 #
point $-1 -1 $-1 12.5 1.5307579422779716e-015 0 #
edge $-1 -1 $-1 $227 -3.1415926535897931 $227 3.1415926535897931 $215 $228 forward @7 unknown #
vertex $-1 -1 $-1 $207 $229 #
ellipse-curve $-1 -1 $-1 13.423393758658797 -7.7500000000000053 0 0 0 1 -0.39175000000000026 -0.67853090386510762 0 1 I I #
point $-1 -1 $-1 -13.031643758658802 -8.428530903865104 0 #
point $-1 -1 $-1 0.78350000000000009 15.5 6.0000000000000009 #
point $-1 -1 $-1 17.5 2.1430611191891602e-015 0 #
vertex $-1 -1 $-1 $221 $230 #
ellipse-curve $-1 -1 $-1 0 15.5 0 0 0 1 0.78350000000000009 0 0 1 I I #
point $-1 -1 $-1 13.815143758658797 -7.0714690961348978 0 #
point $-1 -1 $-1 -0.78350000000000009 15.5 0 #
End-of-ACIS-data 