999
"DXF R12 Output" (www.mydxf.blogspot.com)
 0 
SECTION
 2 
HEADER
 9 
$ACADVER
 1 
AC1009
 9 
$EXTMIN
 10 
 0 
 20 
 0 
 9 
$EXTMAX
 10 
 8.5 
 20 
 11 
 0 
ENDSEC
 0 
SECTION
 2 
ENTITIES
0
LINE
8
Layer 1
10
0.793749
20
297.794000
11
-0.793749
21
296.206000
0
LINE
8
Layer 1
10
0.000000
20
298.323000
11
0.000000
21
295.677000
0
LINE
8
Layer 1
10
2.116660
20
295.942000
11
1.058330
21
294.883670
0
LINE
8
Layer 1
10
1.587500
20
296.471000
11
0.529170
21
295.412670
0
LINE
8
Layer 1
10
1.058330
20
297.000000
11
0.000000
21
295.941670
0
LINE
8
Layer 1
10
12.986100
20
271.954000
11
11.838050
21
271.725639
0
LINE
8
Layer 1
10
11.838050
20
271.725639
11
10.864780
21
271.075320
0
LINE
8
Layer 1
10
10.864780
20
271.075320
11
10.214461
21
270.102050
0
LINE
8
Layer 1
10
10.214461
20
270.102050
11
9.986100
21
268.954000
0
LINE
8
Layer 1
10
9.986100
20
268.954000
11
9.986120
21
180.954000
0
LINE
8
Layer 1
10
9.986120
20
180.954000
11
10.214481
21
179.805950
0
LINE
8
Layer 1
10
10.214481
20
179.805950
11
10.864800
21
178.832680
0
LINE
8
Layer 1
10
10.864800
20
178.832680
11
11.838070
21
178.182361
0
LINE
8
Layer 1
10
11.838070
20
178.182361
11
12.986120
21
177.954000
0
LINE
8
Layer 1
10
12.986120
20
177.954000
11
206.986000
21
177.954000
0
LINE
8
Layer 1
10
206.986000
20
177.954000
11
208.134050
21
178.182361
0
LINE
8
Layer 1
10
208.134050
20
178.182361
11
209.107320
21
178.832680
0
LINE
8
Layer 1
10
209.107320
20
178.832680
11
209.757639
21
179.805950
0
LINE
8
Layer 1
10
209.757639
20
179.805950
11
209.986000
21
180.954000
0
LINE
8
Layer 1
10
209.986000
20
180.954000
11
209.986000
21
268.954000
0
LINE
8
Layer 1
10
209.986000
20
268.954000
11
209.757639
21
270.102050
0
LINE
8
Layer 1
10
209.757639
20
270.102050
11
209.107320
21
271.075320
0
LINE
8
Layer 1
10
209.107320
20
271.075320
11
208.134050
21
271.725639
0
LINE
8
Layer 1
10
208.134050
20
271.725639
11
206.986000
21
271.954000
0
LINE
8
Layer 1
10
206.986000
20
271.954000
11
12.986100
21
271.954000
0
LINE
8
Layer 1
10
16.586100
20
186.954000
11
16.371741
21
187.754000
0
LINE
8
Layer 1
10
16.371741
20
187.754000
11
15.786100
21
188.339641
0
LINE
8
Layer 1
10
15.786100
20
188.339641
11
14.986100
21
188.554000
0
LINE
8
Layer 1
10
14.986100
20
188.554000
11
14.186100
21
188.339641
0
LINE
8
Layer 1
10
14.186100
20
188.339641
11
13.600459
21
187.754000
0
LINE
8
Layer 1
10
13.600459
20
187.754000
11
13.386100
21
186.954000
0
LINE
8
Layer 1
10
13.386100
20
186.954000
11
13.600459
21
186.154000
0
LINE
8
Layer 1
10
13.600459
20
186.154000
11
14.186100
21
185.568359
0
LINE
8
Layer 1
10
14.186100
20
185.568359
11
14.986100
21
185.354000
0
LINE
8
Layer 1
10
14.986100
20
185.354000
11
15.786100
21
185.568359
0
LINE
8
Layer 1
10
15.786100
20
185.568359
11
16.371741
21
186.154000
0
LINE
8
Layer 1
10
16.371741
20
186.154000
11
16.586100
21
186.954000
0
LINE
8
Layer 1
10
16.586100
20
186.954000
11
16.586100
21
186.954000
0
LINE
8
Layer 1
10
16.586100
20
256.954000
11
16.371741
21
257.754000
0
LINE
8
Layer 1
10
16.371741
20
257.754000
11
15.786100
21
258.339641
0
LINE
8
Layer 1
10
15.786100
20
258.339641
11
14.986100
21
258.554000
0
LINE
8
Layer 1
10
14.986100
20
258.554000
11
14.186100
21
258.339641
0
LINE
8
Layer 1
10
14.186100
20
258.339641
11
13.600459
21
257.754000
0
LINE
8
Layer 1
10
13.600459
20
257.754000
11
13.386100
21
256.954000
0
LINE
8
Layer 1
10
13.386100
20
256.954000
11
13.600459
21
256.154000
0
LINE
8
Layer 1
10
13.600459
20
256.154000
11
14.186100
21
255.568359
0
LINE
8
Layer 1
10
14.186100
20
255.568359
11
14.986100
21
255.354000
0
LINE
8
Layer 1
10
14.986100
20
255.354000
11
15.786100
21
255.568359
0
LINE
8
Layer 1
10
15.786100
20
255.568359
11
16.371741
21
256.154000
0
LINE
8
Layer 1
10
16.371741
20
256.154000
11
16.586100
21
256.954000
0
LINE
8
Layer 1
10
16.586100
20
256.954000
11
16.586100
21
256.954000
0
LINE
8
Layer 1
10
118.986000
20
224.954000
11
118.906850
21
226.146135
0
LINE
8
Layer 1
10
118.906850
20
226.146135
11
118.674455
21
227.302256
0
LINE
8
Layer 1
10
118.674455
20
227.302256
11
118.296388
21
228.409248
0
LINE
8
Layer 1
10
118.296388
20
228.409248
11
117.780221
21
229.453995
0
LINE
8
Layer 1
10
117.780221
20
229.453995
11
117.133526
21
230.423381
0
LINE
8
Layer 1
10
117.133526
20
230.423381
11
116.363875
21
231.304291
0
LINE
8
Layer 1
10
116.363875
20
231.304291
11
115.478841
21
232.083609
0
LINE
8
Layer 1
10
115.478841
20
232.083609
11
114.485995
21
232.748220
0
LINE
8
Layer 1
10
114.485995
20
232.748220
11
113.414002
21
233.275744
0
LINE
8
Layer 1
10
113.414002
20
233.275744
11
112.296576
21
233.652547
0
LINE
8
Layer 1
10
112.296576
20
233.652547
11
111.148860
21
233.878629
0
LINE
8
Layer 1
10
111.148860
20
233.878629
11
109.986000
21
233.953990
0
LINE
8
Layer 1
10
109.986000
20
233.953990
11
108.823140
21
233.878629
0
LINE
8
Layer 1
10
108.823140
20
233.878629
11
107.675424
21
233.652547
0
LINE
8
Layer 1
10
107.675424
20
233.652547
11
106.557998
21
233.275744
0
LINE
8
Layer 1
10
106.557998
20
233.275744
11
105.486005
21
232.748220
0
LINE
8
Layer 1
10
105.486005
20
232.748220
11
104.493159
21
232.083609
0
LINE
8
Layer 1
10
104.493159
20
232.083609
11
103.608125
21
231.304291
0
LINE
8
Layer 1
10
103.608125
20
231.304291
11
102.838474
21
230.423381
0
LINE
8
Layer 1
10
102.838474
20
230.423381
11
102.191780
21
229.453995
0
LINE
8
Layer 1
10
102.191780
20
229.453995
11
101.675614
21
228.409248
0
LINE
8
Layer 1
10
101.675614
20
228.409248
11
101.297549
21
227.302256
0
LINE
8
Layer 1
10
101.297549
20
227.302256
11
101.065157
21
226.146135
0
LINE
8
Layer 1
10
101.065157
20
226.146135
11
100.986010
21
224.954000
0
LINE
8
Layer 1
10
100.986010
20
224.954000
11
101.065158
21
223.761865
0
LINE
8
Layer 1
10
101.065158
20
223.761865
11
101.297552
21
222.605744
0
LINE
8
Layer 1
10
101.297552
20
222.605744
11
101.675618
21
221.498752
0
LINE
8
Layer 1
10
101.675618
20
221.498752
11
102.191784
21
220.454005
0
LINE
8
Layer 1
10
102.191784
20
220.454005
11
102.838479
21
219.484619
0
LINE
8
Layer 1
10
102.838479
20
219.484619
11
103.608130
21
218.603709
0
LINE
8
Layer 1
10
103.608130
20
218.603709
11
104.493164
21
217.824391
0
LINE
8
Layer 1
10
104.493164
20
217.824391
11
105.486010
21
217.159780
0
LINE
8
Layer 1
10
105.486010
20
217.159780
11
106.558003
21
216.632256
0
LINE
8
Layer 1
10
106.558003
20
216.632256
11
107.675429
21
216.255453
0
LINE
8
Layer 1
10
107.675429
20
216.255453
11
108.823145
21
216.029371
0
LINE
8
Layer 1
10
108.823145
20
216.029371
11
109.986005
21
215.954010
0
LINE
8
Layer 1
10
109.986005
20
215.954010
11
111.148865
21
216.029371
0
LINE
8
Layer 1
10
111.148865
20
216.029371
11
112.296581
21
216.255453
0
LINE
8
Layer 1
10
112.296581
20
216.255453
11
113.414007
21
216.632256
0
LINE
8
Layer 1
10
113.414007
20
216.632256
11
114.486000
21
217.159780
0
LINE
8
Layer 1
10
114.486000
20
217.159780
11
115.478846
21
217.824391
0
LINE
8
Layer 1
10
115.478846
20
217.824391
11
116.363880
21
218.603709
0
LINE
8
Layer 1
10
116.363880
20
218.603709
11
117.133531
21
219.484619
0
LINE
8
Layer 1
10
117.133531
20
219.484619
11
117.780225
21
220.454005
0
LINE
8
Layer 1
10
117.780225
20
220.454005
11
118.296391
21
221.498752
0
LINE
8
Layer 1
10
118.296391
20
221.498752
11
118.674456
21
222.605744
0
LINE
8
Layer 1
10
118.674456
20
222.605744
11
118.906848
21
223.761865
0
LINE
8
Layer 1
10
118.906848
20
223.761865
11
118.985995
21
224.954000
0
LINE
8
Layer 1
10
118.985995
20
224.954000
11
118.986000
21
224.954000
0
LINE
8
Layer 1
10
206.586000
20
186.954000
11
206.371641
21
187.754000
0
LINE
8
Layer 1
10
206.371641
20
187.754000
11
205.786000
21
188.339641
0
LINE
8
Layer 1
10
205.786000
20
188.339641
11
204.986000
21
188.554000
0
LINE
8
Layer 1
10
204.986000
20
188.554000
11
204.186000
21
188.339641
0
LINE
8
Layer 1
10
204.186000
20
188.339641
11
203.600359
21
187.754000
0
LINE
8
Layer 1
10
203.600359
20
187.754000
11
203.386000
21
186.954000
0
LINE
8
Layer 1
10
203.386000
20
186.954000
11
203.600359
21
186.154000
0
LINE
8
Layer 1
10
203.600359
20
186.154000
11
204.186000
21
185.568359
0
LINE
8
Layer 1
10
204.186000
20
185.568359
11
204.986000
21
185.354000
0
LINE
8
Layer 1
10
204.986000
20
185.354000
11
205.786000
21
185.568359
0
LINE
8
Layer 1
10
205.786000
20
185.568359
11
206.371641
21
186.154000
0
LINE
8
Layer 1
10
206.371641
20
186.154000
11
206.586000
21
186.954000
0
LINE
8
Layer 1
10
206.586000
20
186.954000
11
206.586000
21
186.954000
0
LINE
8
Layer 1
10
206.586000
20
256.954000
11
206.371641
21
257.754000
0
LINE
8
Layer 1
10
206.371641
20
257.754000
11
205.786000
21
258.339641
0
LINE
8
Layer 1
10
205.786000
20
258.339641
11
204.986000
21
258.554000
0
LINE
8
Layer 1
10
204.986000
20
258.554000
11
204.186000
21
258.339641
0
LINE
8
Layer 1
10
204.186000
20
258.339641
11
203.600359
21
257.754000
0
LINE
8
Layer 1
10
203.600359
20
257.754000
11
203.386000
21
256.954000
0
LINE
8
Layer 1
10
203.386000
20
256.954000
11
203.600359
21
256.154000
0
LINE
8
Layer 1
10
203.600359
20
256.154000
11
204.186000
21
255.568359
0
LINE
8
Layer 1
10
204.186000
20
255.568359
11
204.986000
21
255.354000
0
LINE
8
Layer 1
10
204.986000
20
255.354000
11
205.786000
21
255.568359
0
LINE
8
Layer 1
10
205.786000
20
255.568359
11
206.371641
21
256.154000
0
LINE
8
Layer 1
10
206.371641
20
256.154000
11
206.586000
21
256.954000
0
LINE
8
Layer 1
10
206.586000
20
256.954000
11
206.586000
21
256.954000
 0 
ENDSEC
 0 
EOF