<?xml version="1.0" encoding="UTF-8" standalone="no"?>
<svg
   viewBox="0 0 2267.7165 1122.5197"
   width="600mm"
   height="297mm"
   version="1.1"
   id="svg40"
   sodipodi:docname="t1.svg"
   inkscape:version="1.2.2 (732a01da63, 2022-12-09)"
   xmlns:inkscape="http://www.inkscape.org/namespaces/inkscape"
   xmlns:sodipodi="http://sodipodi.sourceforge.net/DTD/sodipodi-0.dtd"
   xmlns="http://www.w3.org/2000/svg"
   xmlns:svg="http://www.w3.org/2000/svg">
  <sodipodi:namedview
     id="namedview42"
     pagecolor="#ffffff"
     bordercolor="#000000"
     borderopacity="0.25"
     inkscape:showpageshadow="2"
     inkscape:pageopacity="0.0"
     inkscape:pagecheckerboard="0"
     inkscape:deskcolor="#d1d1d1"
     showgrid="false"
     inkscape:zoom="0.69041107"
     inkscape:cx="396.86501"
     inkscape:cy="329.51383"
     inkscape:window-width="1920"
     inkscape:window-height="991"
     inkscape:window-x="-9"
     inkscape:window-y="-9"
     inkscape:window-maximized="1"
     inkscape:current-layer="g38"
     inkscape:document-units="mm" />
  <desc
     id="desc9">t1.dxf - scale = 1.000000, origin = (0.000000, 0.000000), method = file</desc>
  <defs
     id="defs24">
    <marker
       id="DistanceX"
       orient="auto"
       refX="0"
       refY="0"
       style="overflow:visible">
      <path
         d="M 3,-3 -3,3 M 0,-5 V 5"
         style="stroke:#000000;stroke-width:0.5"
         id="path11" />
    </marker>
    <pattern
       id="Hatch"
       patternUnits="userSpaceOnUse"
       width="8"
       height="8"
       x="0"
       y="0">
      <path
         d="M8 4 l-4,4"
         stroke="#000000"
         stroke-width="0.25"
         linecap="square"
         id="path14" />
      <path
         d="M6 2 l-4,4"
         stroke="#000000"
         stroke-width="0.25"
         linecap="square"
         id="path16" />
      <path
         d="M4 0 l-4,4"
         stroke="#000000"
         stroke-width="0.25"
         linecap="square"
         id="path18" />
    </pattern>
    <symbol
       id="*Model_Space" />
    <symbol
       id="*Paper_Space" />
    <symbol
       id="*Paper_Space0" />
  </defs>
  <g
     inkscape:groupmode="layer"
     inkscape:label="0"
     id="g38">
    <g
       id="g154"
       transform="translate(415.69437,-850.21811)"
       style="fill:#ffffff;stroke:#ff0000">
      <path
         d="m -366.61417,944.88189 a 11.338583,11.338583 0 0 0 -11.33859,11.33858 v 332.59843 a 11.338583,11.338583 0 0 0 11.33859,11.3386 h 733.22834 a 11.338583,11.338583 0 0 0 11.33859,-11.3386 V 956.22047 a 11.338583,11.338583 0 0 0 -11.33859,-11.33858 z"
         style="fill:#ffffff;stroke:#ff0000"
         id="path26" />
      <path
         d="m -353.00787,1266.1417 a 6.047245,6.047245 0 0 0 -12.09449,0 6.047245,6.047245 0 0 0 12.09449,0 z"
         style="fill:#ffffff;stroke:#ff0000"
         id="path28" />
      <path
         d="m -353.00787,1001.5748 a 6.047245,6.047245 0 0 0 -12.09449,0 6.047245,6.047245 0 0 0 12.09449,0 z"
         style="fill:#ffffff;stroke:#ff0000"
         id="path30" />
      <path
         d="m 34.015748,1122.5197 a 34.015748,34.015748 0 0 0 -68.031496,0 34.015748,34.015748 0 0 0 68.031496,0 z"
         style="fill:#ffffff;stroke:#ff0000"
         id="path32" />
      <path
         d="m 365.10236,1266.1417 a 6.047245,6.047245 0 0 0 -12.09449,0 6.047245,6.047245 0 0 0 12.09449,0 z"
         style="fill:#ffffff;stroke:#ff0000"
         id="path34" />
      <path
         d="m 365.10236,1001.5748 a 6.047245,6.047245 0 0 0 -12.09449,0 6.047245,6.047245 0 0 0 12.09449,0 z"
         style="fill:#ffffff;stroke:#ff0000"
         id="path36" />
    </g>
  </g>
</svg>
